<?xml version="1.0" encoding="UTF-8" standalone="no"?>
<svg
   xmlns:dc="http://purl.org/dc/elements/1.1/"
   xmlns:cc="http://creativecommons.org/ns#"
   xmlns:rdf="http://www.w3.org/1999/02/22-rdf-syntax-ns#"
   xmlns:svg="http://www.w3.org/2000/svg"
   xmlns="http://www.w3.org/2000/svg"
   xmlns:sodipodi="http://sodipodi.sourceforge.net/DTD/sodipodi-0.dtd"
   xmlns:inkscape="http://www.inkscape.org/namespaces/inkscape"
   width="483.83755mm"
   height="133.8835mm"
   viewBox="0 0 483.83755 133.8835"
   version="1.1"
   id="svg8"
   inkscape:version="1.0.2 (e86c870879, 2021-01-15)"
   sodipodi:docname="ontor-logo.svg">
  <defs
     id="defs2" />
  <sodipodi:namedview
     id="base"
     pagecolor="#ffffff"
     bordercolor="#666666"
     borderopacity="1.0"
     inkscape:pageopacity="0.0"
     inkscape:pageshadow="2"
     inkscape:zoom="0.98994949"
     inkscape:cx="685.21963"
     inkscape:cy="361.6192"
     inkscape:document-units="mm"
     inkscape:current-layer="layer1"
     inkscape:document-rotation="0"
     showgrid="false"
     fit-margin-top="0"
     fit-margin-left="0"
     fit-margin-right="0"
     fit-margin-bottom="0"
     inkscape:window-width="3440"
     inkscape:window-height="1376"
     inkscape:window-x="0"
     inkscape:window-y="27"
     inkscape:window-maximized="1" />
  <metadata
     id="metadata5">
    <rdf:RDF>
      <cc:Work
         rdf:about="">
        <dc:format>image/svg+xml</dc:format>
        <dc:type
           rdf:resource="http://purl.org/dc/dcmitype/StillImage" />
        <dc:title></dc:title>
      </cc:Work>
    </rdf:RDF>
  </metadata>
  <g
     inkscape:label="Layer 1"
     inkscape:groupmode="layer"
     id="layer1"
     transform="translate(108.16158,-81.366674)">
    <g
       id="g926">
      <g
         id="g885">
        <g
           style="fill:#005293;fill-opacity:1"
           id="g898"
           transform="matrix(-0.77886909,-0.5710921,0.5710921,-0.77886909,-46.614952,233.01978)">
          <g
             id="g869"
             style="fill:#005293;fill-opacity:1">
            <g
               id="g835"
               style="fill:#005293;fill-opacity:1">
              <rect
                 x="62.799999"
                 y="31.299999"
                 transform="matrix(0.04051926,-0.9992,0.9992,0.04051926,12.0525,110.6352)"
                 width="1.6"
                 height="35.5"
                 id="rect833"
                 style="fill:#005293;fill-opacity:1" />
            </g>
            <g
               id="g839"
               style="fill:#005293;fill-opacity:1">
              <rect
                 x="32.900002"
                 y="31.4"
                 transform="matrix(0.213,-0.9771,0.9771,0.213,7.4163,73.6177)"
                 width="33"
                 height="1.6"
                 id="rect837"
                 style="fill:#005293;fill-opacity:1" />
            </g>
            <g
               id="g843"
               style="fill:#005293;fill-opacity:1">
              <rect
                 x="65.099998"
                 y="20.1"
                 transform="rotate(-21.518396,65.955343,47.190533)"
                 width="1.6"
                 height="54.200001"
                 id="rect841"
                 style="fill:#005293;fill-opacity:1" />
            </g>
            <g
               id="g847"
               style="fill:#005293;fill-opacity:1">
              <rect
                 x="58.5"
                 y="42.799999"
                 transform="matrix(0.6944,-0.7196,0.7196,0.6944,-25.6393,61.2926)"
                 width="1.6"
                 height="36"
                 id="rect845"
                 style="fill:#005293;fill-opacity:1" />
            </g>
            <g
               id="g851"
               style="fill:#005293;fill-opacity:1">
              <rect
                 x="22.4"
                 y="53.200001"
                 transform="matrix(0.8732,-0.4874,0.4874,0.8732,-21.865,24.0108)"
                 width="25.6"
                 height="1.6"
                 id="rect849"
                 style="fill:#005293;fill-opacity:1" />
            </g>
            <g
               id="g855"
               style="fill:#005293;fill-opacity:1">
              <rect
                 x="37.900002"
                 y="32.099998"
                 transform="matrix(0.67,-0.7424,0.7424,0.67,-18.2819,42.5382)"
                 width="1.6"
                 height="19.4"
                 id="rect853"
                 style="fill:#005293;fill-opacity:1" />
            </g>
            <circle
               cx="45.900002"
               cy="48.299999"
               r="8.1000004"
               id="circle857"
               style="fill:#005293;fill-opacity:1" />
            <circle
               cx="31.5"
               cy="35.299999"
               r="6.3000002"
               id="circle859"
               style="fill:#005293;fill-opacity:1" />
            <circle
               cx="54"
               cy="16.1"
               r="11.3"
               id="circle861"
               style="fill:#005293;fill-opacity:1" />
            <circle
               cx="17.299999"
               cy="59.5"
               r="12.8"
               id="circle863"
               style="fill:#005293;fill-opacity:1" />
            <circle
               cx="78.5"
               cy="78.699997"
               r="16"
               id="circle865"
               style="fill:#005293;fill-opacity:1" />
            <circle
               cx="81.400002"
               cy="49.799999"
               r="4.8000002"
               id="circle867"
               style="fill:#005293;fill-opacity:1" />
          </g>
        </g>
        <path
           d="m 10.725538,93.991231 -23.47107,-12.155536 c -2.39194,-1.122509 -5.24371,-0.164663 -6.47307,2.174161 l -21.9441,43.642014 c -0.50013,0.95589 -0.38271,3.41493 -0.20309,4.47872 l 2.29991,17.92824 c 0.56001,3.23461 3.57454,4.99117 6.53095,3.5643 l 19.17167,-6.19624 c 0.95587,-0.4665 3.30291,-2.16612 3.7907797,-3.11128 L 12.850328,100.61254 c 1.22743,-2.416309 0.27948,-5.370379 -2.12475,-6.621309 z m -28.72496,45.553979 -13.03823,4.20155 -1.48935,-12.54718 19.63324,-38.246009 14.8238197,7.560149 z m 28.42848,0.20224 v 50.79632 c 0,13.64496 -11.06142027,24.70639 -24.70638,24.70639 h -69.177872 c -13.644959,0 -24.706386,-11.06143 -24.706386,-24.70639 V 121.3659 c 0,-13.64495 11.061427,-24.706379 24.706386,-24.706379 h 38.640782 c 6.58837,0 6.58837,9.882559 0,9.882559 h -38.640782 c -8.186973,-1e-5 -14.823832,6.63685 -14.823832,14.82382 v 69.17787 c 0,8.18698 6.636859,14.82383 14.823832,14.82383 h 69.177872 c 8.1869697,0 14.82382973,-6.63685 14.82382973,-14.82383 v -50.79632 c 0,-6.58836 9.88255027,-6.58836 9.88255027,0 z"
           id="path920"
           sodipodi:nodetypes="ccccccccccccsccccssssssssssssssssss"
           style="fill:#999999;fill-opacity:1;stroke-width:4.94128" />
      </g>
      <g
         aria-label="ontor"
         id="text853"
         style="font-style:normal;font-weight:normal;font-size:110.779px;line-height:1.25;font-family:sans-serif;fill:#000000;fill-opacity:1;stroke:none;stroke-width:2.19158">
        <g
           id="g895">
          <path
             d="m 96.280506,215.25017 c 17.724644,0 30.796564,-13.07192 30.796564,-30.79656 -0.11078,-17.83542 -13.07192,-30.90734 -30.796564,-30.90734 -17.835419,0 -30.796562,13.07192 -30.796562,30.90734 0,17.72464 12.961143,30.79656 30.796562,30.79656 z m 0,-7.75453 c -12.850364,0 -22.488137,-9.74855 -22.488137,-23.04203 0,-13.40426 9.637773,-23.15281 22.488137,-23.15281 12.961144,0 22.377354,9.74855 22.377354,23.15281 0,13.29348 -9.41621,23.04203 -22.377354,23.04203 z"
             style="font-style:normal;font-variant:normal;font-weight:normal;font-stretch:normal;font-size:110.779px;font-family:Comfortaa;-inkscape-font-specification:Comfortaa;fill:#999999;fill-opacity:1;stroke-width:2.19158"
             id="path879" />
          <path
             d="m 172.38547,153.43549 c -8.19764,0 -15.39828,3.32337 -20.16177,8.75154 v -3.76649 c 0,-2.54791 -1.66169,-4.32038 -4.20961,-4.32038 -2.54791,0 -4.32038,1.77247 -4.32038,4.32038 v 52.06613 c 0,2.54792 1.77247,4.2096 4.32038,4.2096 2.54792,0 4.20961,-1.66168 4.20961,-4.2096 v -32.79058 c 0,-9.19466 8.30842,-16.17374 19.27554,-16.17374 11.29946,0 19.82944,6.53597 19.82944,20.16178 v 28.80254 c 0,2.43714 1.88324,4.2096 4.32038,4.2096 2.32636,0 4.2096,-1.77246 4.2096,-4.2096 v -28.80254 c 0,-18.27853 -11.85335,-28.24864 -27.47319,-28.24864 z"
             style="font-style:normal;font-variant:normal;font-weight:normal;font-stretch:normal;font-size:110.779px;font-family:Comfortaa;-inkscape-font-specification:Comfortaa;fill:#999999;fill-opacity:1;stroke-width:2.19158"
             id="path881" />
          <path
             d="m 245.38863,206.16629 h -2.99103 c -6.8683,0 -11.85336,-5.31739 -11.85336,-12.85036 v -29.578 h 12.51803 c 2.32636,0 3.87726,-1.5509 3.87726,-3.6557 0,-2.21558 -1.5509,-3.76649 -3.87726,-3.76649 H 230.54424 V 139.145 c 0,-2.54792 -1.77246,-4.32038 -4.32038,-4.32038 -2.43714,0 -4.2096,1.77246 -4.2096,4.32038 v 17.17074 h -7.20064 c -2.32635,0 -3.87726,1.55091 -3.87726,3.76649 0,2.1048 1.55091,3.6557 3.87726,3.6557 h 7.20064 v 29.578 c 0,12.29647 8.52998,21.26956 20.38334,21.38034 h 2.32635 c 2.6587,0 4.65272,-1.77246 4.65272,-4.2096 0,-2.54792 -1.66168,-4.32038 -3.98804,-4.32038 z"
             style="font-style:normal;font-variant:normal;font-weight:normal;font-stretch:normal;font-size:110.779px;font-family:Comfortaa;-inkscape-font-specification:Comfortaa;fill:#999999;fill-opacity:1;stroke-width:2.19158"
             id="path883" />
          <path
             d="m 290.80785,215.25017 c 17.72464,0 30.79656,-13.07192 30.79656,-30.79656 -0.11078,-17.83542 -13.07192,-30.90734 -30.79656,-30.90734 -17.83542,0 -30.79656,13.07192 -30.79656,30.90734 0,17.72464 12.96114,30.79656 30.79656,30.79656 z m 0,-7.75453 c -12.85036,0 -22.48814,-9.74855 -22.48814,-23.04203 0,-13.40426 9.63778,-23.15281 22.48814,-23.15281 12.96114,0 22.37736,9.74855 22.37736,23.15281 0,13.29348 -9.41622,23.04203 -22.37736,23.04203 z"
             style="font-style:normal;font-variant:normal;font-weight:normal;font-stretch:normal;font-size:110.779px;font-family:Comfortaa;-inkscape-font-specification:Comfortaa;fill:#999999;fill-opacity:1;stroke-width:2.19158"
             id="path885" />
          <path
             d="m 365.58348,153.43549 c -7.75453,0 -14.62282,3.6557 -18.9432,9.74855 v -4.87428 c 0,-2.65869 -1.55091,-4.2096 -4.20961,-4.2096 -2.65869,0 -4.2096,1.55091 -4.2096,4.2096 v 52.17691 c 0,2.6587 1.55091,4.2096 4.2096,4.2096 2.6587,0 4.20961,-1.5509 4.20961,-4.2096 v -33.12292 c 0,-10.30245 9.08387,-16.94919 21.49112,-15.8414 3.65571,0.22156 6.64674,0.88624 7.42219,-2.43713 0.88624,-3.65571 -3.10181,-5.64973 -9.97011,-5.64973 z"
             style="font-style:normal;font-variant:normal;font-weight:normal;font-stretch:normal;font-size:110.779px;font-family:Comfortaa;-inkscape-font-specification:Comfortaa;fill:#999999;fill-opacity:1;stroke-width:2.19158"
             id="path887" />
        </g>
      </g>
    </g>
  </g>
</svg>
