<?xml version="1.0" encoding="UTF-8" standalone="no"?>
<svg
   xmlns:dc="http://purl.org/dc/elements/1.1/"
   xmlns:cc="http://creativecommons.org/ns#"
   xmlns:rdf="http://www.w3.org/1999/02/22-rdf-syntax-ns#"
   xmlns:svg="http://www.w3.org/2000/svg"
   xmlns="http://www.w3.org/2000/svg"
   xmlns:sodipodi="http://sodipodi.sourceforge.net/DTD/sodipodi-0.dtd"
   xmlns:inkscape="http://www.inkscape.org/namespaces/inkscape"
   width="483.83755mm"
   height="133.8835mm"
   viewBox="0 0 483.83755 133.8835"
   version="1.1"
   id="svg8"
   inkscape:version="1.0.2 (e86c870879, 2021-01-15)"
   sodipodi:docname="ontor-logo.svg">
  <defs
     id="defs2" />
  <sodipodi:namedview
     id="base"
     pagecolor="#ffffff"
     bordercolor="#666666"
     borderopacity="1.0"
     inkscape:pageopacity="0.0"
     inkscape:pageshadow="2"
     inkscape:zoom="0.98994949"
     inkscape:cx="685.21963"
     inkscape:cy="361.6192"
     inkscape:document-units="mm"
     inkscape:current-layer="layer1"
     inkscape:document-rotation="0"
     showgrid="false"
     fit-margin-top="0"
     fit-margin-left="0"
     fit-margin-right="0"
     fit-margin-bottom="0"
     inkscape:window-width="3440"
     inkscape:window-height="1376"
     inkscape:window-x="0"
     inkscape:window-y="27"
     inkscape:window-maximized="1" />
  <metadata
     id="metadata5">
    <rdf:RDF>
      <cc:Work
         rdf:about="">
        <dc:format>image/svg+xml</dc:format>
        <dc:type
           rdf:resource="http://purl.org/dc/dcmitype/StillImage" />
        <dc:title></dc:title>
      </cc:Work>
    </rdf:RDF>
  </metadata>
  <g
     inkscape:label="Layer 1"
     inkscape:groupmode="layer"
     id="layer1"
     transform="translate(108.16158,-81.366674)">
    <g
       style="fill:#005293;fill-opacity:1"
       id="g898"
       transform="matrix(-0.77886909,-0.5710921,0.5710921,-0.77886909,-46.614952,233.01978)">
      <g
         id="g869"
         style="fill:#005293;fill-opacity:1">
        <g
           id="g835"
           style="fill:#005293;fill-opacity:1">
          <rect
             x="62.799999"
             y="31.299999"
             transform="matrix(0.04051926,-0.9992,0.9992,0.04051926,12.0525,110.6352)"
             width="1.6"
             height="35.5"
             id="rect833"
             style="fill:#005293;fill-opacity:1" />
        </g>
        <g
           id="g839"
           style="fill:#005293;fill-opacity:1">
          <rect
             x="32.900002"
             y="31.4"
             transform="matrix(0.213,-0.9771,0.9771,0.213,7.4163,73.6177)"
             width="33"
             height="1.6"
             id="rect837"
             style="fill:#005293;fill-opacity:1" />
        </g>
        <g
           id="g843"
           style="fill:#005293;fill-opacity:1">
          <rect
             x="65.099998"
             y="20.1"
             transform="rotate(-21.518396,65.955343,47.190533)"
             width="1.6"
             height="54.200001"
             id="rect841"
             style="fill:#005293;fill-opacity:1" />
        </g>
        <g
           id="g847"
           style="fill:#005293;fill-opacity:1">
          <rect
             x="58.5"
             y="42.799999"
             transform="matrix(0.6944,-0.7196,0.7196,0.6944,-25.6393,61.2926)"
             width="1.6"
             height="36"
             id="rect845"
             style="fill:#005293;fill-opacity:1" />
        </g>
        <g
           id="g851"
           style="fill:#005293;fill-opacity:1">
          <rect
             x="22.4"
             y="53.200001"
             transform="matrix(0.8732,-0.4874,0.4874,0.8732,-21.865,24.0108)"
             width="25.6"
             height="1.6"
             id="rect849"
             style="fill:#005293;fill-opacity:1" />
        </g>
        <g
           id="g855"
           style="fill:#005293;fill-opacity:1">
          <rect
             x="37.900002"
             y="32.099998"
             transform="matrix(0.67,-0.7424,0.7424,0.67,-18.2819,42.5382)"
             width="1.6"
             height="19.4"
             id="rect853"
             style="fill:#005293;fill-opacity:1" />
        </g>
        <circle
           cx="45.900002"
           cy="48.299999"
           r="8.1000004"
           id="circle857"
           style="fill:#005293;fill-opacity:1" />
        <circle
           cx="31.5"
           cy="35.299999"
           r="6.3000002"
           id="circle859"
           style="fill:#005293;fill-opacity:1" />
        <circle
           cx="54"
           cy="16.1"
           r="11.3"
           id="circle861"
           style="fill:#005293;fill-opacity:1" />
        <circle
           cx="17.299999"
           cy="59.5"
           r="12.8"
           id="circle863"
           style="fill:#005293;fill-opacity:1" />
        <circle
           cx="78.5"
           cy="78.699997"
           r="16"
           id="circle865"
           style="fill:#005293;fill-opacity:1" />
        <circle
           cx="81.400002"
           cy="49.799999"
           r="4.8000002"
           id="circle867"
           style="fill:#005293;fill-opacity:1" />
      </g>
    </g>
    <path
       d="m 10.725538,93.991231 -23.47107,-12.155536 c -2.39194,-1.122509 -5.24371,-0.164663 -6.47307,2.174161 l -21.9441,43.642014 c -0.50013,0.95589 -0.38271,3.41493 -0.20309,4.47872 l 2.29991,17.92824 c 0.56001,3.23461 3.57454,4.99117 6.53095,3.5643 l 19.17167,-6.19624 c 0.95587,-0.4665 3.30291,-2.16612 3.7907797,-3.11128 L 12.850328,100.61254 c 1.22743,-2.416309 0.27948,-5.370379 -2.12475,-6.621309 z m -28.72496,45.553979 -13.03823,4.20155 -1.48935,-12.54718 19.63324,-38.246009 14.8238197,7.560149 z m 28.42848,0.20224 v 50.79632 c 0,13.64496 -11.06142027,24.70639 -24.70638,24.70639 h -69.177872 c -13.644959,0 -24.706386,-11.06143 -24.706386,-24.70639 V 121.3659 c 0,-13.64495 11.061427,-24.706379 24.706386,-24.706379 h 38.640782 c 6.58837,0 6.58837,9.882559 0,9.882559 h -38.640782 c -8.186973,-1e-5 -14.823832,6.63685 -14.823832,14.82382 v 69.17787 c 0,8.18698 6.636859,14.82383 14.823832,14.82383 h 69.177872 c 8.1869697,0 14.82382973,-6.63685 14.82382973,-14.82383 v -50.79632 c 0,-6.58836 9.88255027,-6.58836 9.88255027,0 z"
       id="path920"
       sodipodi:nodetypes="ccccccccccccsccccssssssssssssssssss"
       style="fill:#999999;fill-opacity:1;stroke-width:4.94128" />
    <text
       xml:space="preserve"
       style="font-style:normal;font-weight:normal;font-size:110.779px;line-height:1.25;font-family:sans-serif;fill:#000000;fill-opacity:1;stroke:none;stroke-width:2.19158"
       x="58.726425"
       y="214.69627"
       id="text853"><tspan
         sodipodi:role="line"
         id="tspan851"
         x="58.726425"
         y="214.69627"
         style="font-style:normal;font-variant:normal;font-weight:normal;font-stretch:normal;font-size:110.779px;font-family:Comfortaa;-inkscape-font-specification:Comfortaa;fill:#999999;fill-opacity:1;stroke-width:2.19158">ontor</tspan></text>
  </g>
</svg>
